HIERARCHY
ROOT Hips
{
    OFFSET 0.000000 0.000000 0.000000
    CHANNELS 6 Xposition Yposition Zposition Zrotation Xrotation Yrotation
    JOINT Chest
    {
        OFFSET -0.000000 0.078598 0.000000
        CHANNELS 3 Zrotation Xrotation Yrotation
        JOINT Chest2
        {
            OFFSET -0.000000 0.230468 0.000000
            CHANNELS 3 Zrotation Xrotation Yrotation
            JOINT Neck
            {
                OFFSET -0.000000 0.249638 0.000000
                CHANNELS 3 Zrotation Xrotation Yrotation
                JOINT Head
                {
                    OFFSET -0.000000 0.103998 0.019170
                    CHANNELS 3 Zrotation Xrotation Yrotation
                    End Site
                    {
                        OFFSET -0.000000 0.191701 0.000000
                    }
                }
            }
            JOINT LeftCollar
            {
                OFFSET 0.038274 0.205938 -0.001496
                CHANNELS 3 Zrotation Xrotation Yrotation
                JOINT LeftShoulder
                {
                    OFFSET 0.132388 0.000000 0.000000
                    CHANNELS 3 Zrotation Xrotation Yrotation
                    JOINT LeftElbow
                    {
                        OFFSET 0.250301 0.000000 0.000000
                        CHANNELS 3 Zrotation Xrotation Yrotation
                        JOINT LeftWrist
                        {
                            OFFSET 0.285291 0.000000 0.000000
                            CHANNELS 3 Zrotation Xrotation Yrotation
                            End Site
                            {
                                OFFSET 0.000000 -0.143776 0.000000
                            }
                        }
                    }
                }
            }
            JOINT RightCollar
            {
                OFFSET -0.038406 0.205938 -0.001496
                CHANNELS 3 Zrotation Xrotation Yrotation
                JOINT RightShoulder
                {
                    OFFSET -0.132388 0.000000 0.000000
                    CHANNELS 3 Zrotation Xrotation Yrotation
                    JOINT RightElbow
                    {
                        OFFSET -0.250301 0.000000 0.000000
                        CHANNELS 3 Zrotation Xrotation Yrotation
                        JOINT RightWrist
                        {
                            OFFSET -0.285291 0.000000 0.000000
                            CHANNELS 3 Zrotation Xrotation Yrotation
                            End Site
                            {
                                OFFSET -0.000000 -0.143776 0.000000
                            }
                        }
                    }
                }
            }
        }
    }
    JOINT LeftHip
    {
        OFFSET 0.095851 0.000000 0.000000
        CHANNELS 3 Zrotation Xrotation Yrotation
        JOINT LeftKnee
        {
            OFFSET -0.000000 -0.406444 0.000000
            CHANNELS 3 Zrotation Xrotation Yrotation
            JOINT LeftAnkle
            {
                OFFSET -0.000000 -0.408443 0.000000
                CHANNELS 3 Zrotation Xrotation Yrotation
                JOINT LeftToe
                {
                    OFFSET -0.000000 -0.062303 0.143776
                    CHANNELS 3 Zrotation Xrotation Yrotation
                    End Site
                    {
                        OFFSET -0.000000 0.000000 0.038340
                    }
                }
            }
        }
    }
    JOINT RightHip
    {
        OFFSET -0.095851 0.000000 0.000000
        CHANNELS 3 Zrotation Xrotation Yrotation
        JOINT RightKnee
        {
            OFFSET -0.000000 -0.406444 0.000000
            CHANNELS 3 Zrotation Xrotation Yrotation
            JOINT RightAnkle
            {
                OFFSET -0.000000 -0.408443 0.000000
                CHANNELS 3 Zrotation Xrotation Yrotation
                JOINT RightToe
                {
                    OFFSET -0.000000 -0.062303 0.143776
                    CHANNELS 3 Zrotation Xrotation Yrotation
                    End Site
                    {
                        OFFSET -0.000000 0.000000 0.038340
                    }
                }
            }
        }
    }
}
MOTION
Frames:    13
Frame Time:    0.016667
0.065531    0.834799    -0.422591    -0.936295    0.058500    -93.413017    5.359175    13.061315    10.028920    -8.109822    7.340747    4.079891    -3.619903    7.039701    -5.194347    -4.405140    14.787902    -4.952160    10.379205    -3.805187    -24.882807    -44.110191    56.037537    -26.459997    -4.989129    -10.707298    -62.825096    62.422680    -18.120445    9.207069    -8.050649    -18.521017    31.242517    36.978611    47.821602    51.297184    13.441380    -9.109154    104.219322    -68.404625    -0.687276    -25.592604    16.954412    -12.420466    0.157117    -12.189661    32.601448    8.128466    -11.205846    -23.246504    5.431878    0.000000    0.000000    0.000000    -28.384682    -11.550940    -2.878352    11.391485    22.211222    -13.127830    2.951116    -7.183492    -15.381068    0.000000    0.000000    0.000000    
0.064815    0.832982    -0.434530    -0.810285    -0.101035    -92.665169    5.481920    12.964983    9.868633    -8.114822    7.312253    4.027853    -3.804175    7.037605    -5.143368    -4.106969    14.858531    -5.008775    10.295056    -3.778723    -24.963081    -44.017311    56.086826    -26.249605    -4.973193    -10.794735    -63.079617    62.657513    -17.548393    9.480827    -7.980151    -18.284670    31.341705    36.877987    47.467617    51.350651    12.842302    -9.450449    103.942924    -66.215530    -2.213156    -24.774158    17.584650    -12.672869    -0.039166    -12.022579    32.449066    7.625915    -12.067328    -22.836033    5.341441    0.000000    0.000000    0.000000    -28.698027    -11.213750    -3.364494    11.083766    21.841669    -13.415475    2.307974    -6.343607    -15.565874    0.000000    0.000000    0.000000    
0.063693    0.830970    -0.447132    -0.766445    -0.302040    -92.025002    5.557806    12.962739    9.851377    -8.132883    7.273478    4.023495    -3.775176    7.031119    -5.251182    -4.029803    14.827836    -5.135029    10.312884    -3.745076    -25.085909    -43.943367    55.897354    -26.210117    -5.218960    -10.590524    -63.020573    64.215897    -19.252562    9.276109    -7.990354    -18.288338    31.290665    37.670982    46.868008    50.754486    13.263925    -8.581377    103.744499    -64.998543    -2.615827    -24.312515    18.300940    -12.736196    -0.391530    -12.119431    32.235752    7.268324    -12.850702    -22.368872    5.334997    0.000000    0.000000    0.000000    -28.964960    -10.843167    -3.888006    10.903042    21.502066    -13.183898    1.862320    -4.967243    -15.726509    0.000000    0.000000    0.000000    
0.062763    0.828797    -0.459858    -0.703851    -0.535695    -91.486588    5.689509    12.878242    9.782635    -8.101358    7.388458    4.010557    -3.817540    6.999331    -5.280007    -4.085513    14.648401    -5.164081    10.217268    -3.877014    -25.065708    -44.068245    55.913582    -25.903048    -5.373512    -10.575592    -63.096474    63.770523    -18.379456    9.487661    -8.022503    -18.461195    31.259760    37.309872    46.730957    51.610073    37.274628    -2.264755    106.756706    -69.338577    8.529694    -3.404022    18.791233    -12.641226    -0.451386    -11.564949    31.703667    6.692627    -13.768728    -21.828066    4.965096    0.000000    0.000000    0.000000    -29.169273    -10.676797    -4.769588    10.864504    21.437401    -13.366810    2.453897    -4.297399    -16.059898    0.000000    0.000000    0.000000    
0.061877    0.826540    -0.473022    -0.633628    -0.871664    -91.080727    5.845140    12.795946    9.765512    -8.335199    7.517974    4.033992    -3.644566    6.867177    -5.389914    -4.073215    14.654368    -5.242606    10.336740    -3.927619    -25.076744    -44.109745    55.936153    -25.798130    -5.263423    -10.821112    -62.968929    62.500259    -18.238987    9.474856    -8.032768    -18.728315    31.278044    37.300663    47.534035    51.224617    12.899874    -9.359562    103.511406    -65.321388    -2.500888    -24.560339    19.308773    -12.525440    -0.698880    -11.398985    31.111189    6.533427    -14.775734    -21.207563    4.852890    0.000000    0.000000    0.000000    -29.317188    -10.660893    -6.438403    10.650801    21.634581    -13.174305    2.508647    -4.140800    -16.334616    0.000000    0.000000    0.000000    
0.060615    0.824471    -0.487073    -0.635412    -1.252968    -90.745583    5.855475    12.777378    9.836086    -8.351810    7.558735    4.061699    -3.763209    6.807220    -5.469765    -3.605065    14.791166    -5.460397    10.312006    -3.840690    -25.127840    -44.029194    55.680878    -25.713444    -5.710198    -10.700325    -63.158356    62.599663    -18.267067    9.644378    -8.100542    -18.532101    31.133570    36.901058    47.280296    51.696445    12.900059    -9.337823    103.401260    -65.374374    -2.538164    -24.503679    19.763290    -12.124690    -0.895902    -10.937106    30.188620    6.149790    -16.004503    -20.412439    4.643815    0.000000    0.000000    0.000000    -29.327671    -10.610300    -6.909946    10.955443    21.696470    -14.135865    3.965592    -4.932921    -17.048779    0.000000    0.000000    0.000000    
0.059620    0.822252    -0.501576    -0.663166    -1.715002    -90.457787    5.851659    12.823705    9.863743    -8.420416    7.571467    4.077096    -3.904915    6.740860    -5.565437    -3.088461    14.975167    -5.710797    10.318396    -3.685758    -25.102365    -43.815731    55.544224    -25.881636    -5.809191    -10.659805    -63.273155    62.832207    -18.275656    9.708777    -8.044732    -18.768238    31.305513    37.102936    47.418461    51.444920    12.908536    -9.330530    103.298950    -65.486870    -2.658559    -24.455513    20.128304    -11.675551    -1.089725    -10.417771    29.205435    5.744514    -17.213829    -19.482336    4.605124    0.000000    0.000000    0.000000    -29.263193    -10.833524    -7.671561    11.088078    22.578867    -15.069427    6.349647    -6.883077    -17.271374    0.000000    0.000000    0.000000    
0.058625    0.820110    -0.516615    -0.635343    -2.227998    -90.237007    5.889351    12.865899    9.861324    -8.619602    7.422800    4.080874    -3.894204    6.976675    -5.624246    -2.853404    14.706891    -5.844124    10.409149    -3.628156    -25.061907    -43.907753    55.454666    -25.760365    -5.709125    -10.455519    -63.350651    62.674561    -18.088711    9.472086    -7.939553    -18.610195    31.354635    37.570152    46.403526    51.034554    13.568106    -7.992516    103.184120    -65.808388    -2.421222    -24.036741    20.347773    -11.185770    -1.288143    -9.571961    28.082340    5.124990    -18.590580    -18.346342    4.758646    0.000000    0.000000    0.000000    -29.268019    -11.330859    -8.184906    11.609808    24.362785    -16.052862    9.040301    -9.852242    -16.676306    0.000000    0.000000    0.000000    
0.057879    0.817768    -0.531774    -0.646139    -2.802945    -90.046059    5.907179    12.990896    9.804391    -8.751354    7.256474    4.060327    -3.731385    7.040844    -5.779366    -3.135143    14.721122    -5.903045    10.334029    -3.550945    -24.911413    -43.778130    55.528023    -25.853668    -5.307877    -10.336650    -63.470318    62.364513    -17.893141    9.117851    -7.978160    -18.350887    31.428427    36.419792    47.026558    51.882275    13.022087    -9.223333    103.428192    -65.266647    -2.494766    -24.557878    20.453648    -10.647111    -1.611140    -8.728032    26.886696    4.739313    -19.957346    -17.146828    4.997914    0.000000    0.000000    0.000000    -29.535936    -12.623713    -8.779331    12.012283    27.694157    -17.204958    11.613401    -12.328527    -14.637156    0.000000    0.000000    0.000000    
0.057146    0.815693    -0.547356    -0.769560    -3.388422    -89.874420    5.937016    13.045749    9.673433    -8.826906    7.376985    4.032844    -3.833637    7.279263    -5.849177    -2.840407    14.267313    -6.088840    10.331885    -3.534302    -24.934252    -43.978615    55.169231    -25.734865    -5.642070    -10.010008    -63.603722    63.329197    -17.651995    9.224622    -7.958026    -18.884083    31.694159    36.685135    47.651848    51.405598    12.639085    -9.909195    103.565559    -64.741501    -2.883012    -24.670862    20.535513    -9.995775    -2.067679    -7.816845    25.680145    3.990242    -21.348772    -15.862458    5.643244    0.000000    0.000000    0.000000    -30.376160    -14.017406    -8.470964    14.514804    31.013983    -18.120344    11.725523    -14.579494    -15.008381    0.000000    0.000000    0.000000    
0.056529    0.814016    -0.563269    -0.911748    -3.937180    -89.644608    5.943767    13.114595    9.293684    -8.650160    7.577635    3.911622    -4.310209    7.169415    -5.802249    -2.208467    14.173793    -6.289781    10.216815    -3.361117    -24.641747    -43.748024    54.974579    -26.075693    -5.513061    -9.883264    -63.627514    63.111221    -17.088957    9.124702    -8.036268    -18.955690    31.786768    36.309204    47.486042    51.664288    12.766375    -9.779857    103.462639    -64.766945    -2.966700    -24.657274    20.796986    -9.242284    -2.527415    -7.262126    24.126669    3.187728    -22.317997    -14.427044    6.812567    0.000000    0.000000    0.000000    -31.218224    -15.224937    -8.217291    17.446634    33.952190    -18.496977    11.011126    -16.497366    -16.434849    0.000000    0.000000    0.000000    
0.056131    0.812890    -0.578921    -0.841561    -4.481087    -89.357361    6.041033    12.927495    8.899729    -8.615189    7.913814    3.803570    -4.227301    6.783305    -5.901487    -2.143299    14.216872    -6.377113    10.456425    -3.382186    -24.450918    -43.960373    54.503807    -26.280645    -5.661998    -9.320918    -63.334560    63.486202    -17.346220    8.637258    -8.116253    -19.243654    31.464275    35.976097    47.756813    51.991135    12.696789    -10.037354    103.575615    -64.631821    -2.899432    -24.852686    20.995213    -8.685558    -2.922811    -6.652359    22.441721    3.670244    -22.991158    -12.367658    6.959919    0.000000    0.000000    0.000000    -31.989204    -16.332972    -8.780023    19.748495    36.598907    -18.501551    10.330193    -17.813969    -17.213337    0.000000    0.000000    0.000000    
0.056105    0.812077    -0.594884    -0.679999    -4.861146    -89.144371    6.197938    12.721279    8.470813    -8.392991    7.997090    3.653250    -4.467457    6.554487    -5.999454    -1.691089    14.450535    -6.624929    10.378775    -3.289920    -24.345221    -44.036610    54.401985    -26.248146    -5.667993    -9.125777    -63.274300    63.888393    -17.123329    8.561396    -8.274301    -19.114885    31.372654    35.335686    48.082066    52.435722    12.443040    -10.705128    103.765480    -64.241821    -3.095151    -25.159477    21.446615    -8.184644    -2.806178    -5.979883    20.739923    2.826944    -23.701357    -10.217240    7.881434    0.000000    0.000000    0.000000    -32.221008    -17.094484    -10.178425    20.805948    38.554165    -18.097321    9.602811    -19.152359    -17.125605    0.000000    0.000000    0.000000    
